<svg id="Capa_2" data-name="Capa 2" xmlns="http://www.w3.org/2000/svg" xmlns:xlink="http://www.w3.org/1999/xlink" viewBox="0 0 78 127"><defs><style>.cls-1{fill:url(#Cielo);}.cls-2{fill:#0cf;}.cls-3{fill:url(#Degradado_sin_nombre_53);}</style><linearGradient id="Cielo" x1="266.26" y1="164.02" x2="325.5" y2="164.02" gradientUnits="userSpaceOnUse"><stop offset="0" stop-color="#cce0f4"/><stop offset="0.06" stop-color="#c3dcf2"/><stop offset="0.17" stop-color="#a9d2ee"/><stop offset="0.31" stop-color="#80c2e7"/><stop offset="0.46" stop-color="#47acde"/><stop offset="0.57" stop-color="#1e9cd7"/><stop offset="0.87" stop-color="#0075be"/><stop offset="0.99" stop-color="#005b97"/></linearGradient><linearGradient id="Degradado_sin_nombre_53" x1="247.5" y1="176.48" x2="306.5" y2="176.48" gradientUnits="userSpaceOnUse"><stop offset="0.11" stop-color="#30c0ae" stop-opacity="0.83"/><stop offset="0.64" stop-color="#65e5d8" stop-opacity="0.91"/><stop offset="0.9" stop-color="#b3f2ec" stop-opacity="0.98"/><stop offset="1" stop-color="#e2faf8"/></linearGradient></defs><path class="cls-1" d="M266.5,195.79V173.5c0-.95-.53-1.78,0-1,4.54,6.71,22.15,21.13,35.85,3.3a20.47,20.47,0,0,0,4.15-12.51V124.85a.35.35,0,0,1,.36-.35h14.87a3.77,3.77,0,0,1,3.77,3.77v34.9a39.19,39.19,0,0,1-4.34,18.08c-6.78,13-22.4,31.51-53.12,17A2.71,2.71,0,0,1,266.5,195.79Z" transform="translate(-247.5 -100.5)"/><circle class="cls-2" cx="68.5" cy="9.5" r="9.5"/><path class="cls-3" d="M306.5,161.5s-5-17-20-17c0,0-22.23,1-20.13,26.66.07.89.13,1.79.13,2.69v37.67a5.23,5.23,0,0,1-.43,2.1A23.15,23.15,0,0,1,247.5,227.5v-66a19.77,19.77,0,0,1,.6-4.91c2-7.76,10-28.68,38.4-31.12,0,0,13-1,20,6Z" transform="translate(-247.5 -100.5)"/></svg>